<svg xmlns="http://www.w3.org/2000/svg" width="402" height="874" viewBox="0 0 402 874" font-family="-apple-system, 'SF Pro Display', 'Roboto', 'Apple SD Gothic Neo', 'Noto Sans KR', sans-serif">

  <g id="device-frame">
    <rect x="0" y="0" width="402" height="874" rx="48" fill="#000000"/>
  </g>

  <g id="status-bar">
    <text x="34" y="38" font-size="17" font-weight="590" fill="#FFFFFF" letter-spacing="-0.3">9:41</text>
    <g id="signal-bars" transform="translate(296, 29)">
      <rect x="0" y="7.5" width="3.2" height="4.5" rx="0.7" fill="#FFFFFF"/>
      <rect x="4.8" y="5" width="3.2" height="7" rx="0.7" fill="#FFFFFF"/>
      <rect x="9.6" y="2.5" width="3.2" height="9.5" rx="0.7" fill="#FFFFFF"/>
      <rect x="14.4" y="0" width="3.2" height="12" rx="0.7" fill="#FFFFFF"/>
    </g>
    <g id="wifi-icon" transform="translate(321, 29)">
      <path d="M8.5 3.2C10.8 3.2 12.9 4.1 14.4 5.6L15.5 4.5C13.7 2.7 11.2 1.5 8.5 1.5C5.8 1.5 3.3 2.7 1.5 4.5L2.6 5.6C4.1 4.1 6.2 3.2 8.5 3.2Z" fill="#FFFFFF"/>
      <path d="M8.5 6.8C9.9 6.8 11.1 7.3 12 8.2L13.1 7.1C11.8 5.9 10.2 5.1 8.5 5.1C6.8 5.1 5.2 5.9 3.9 7.1L5 8.2C5.9 7.3 7.1 6.8 8.5 6.8Z" fill="#FFFFFF"/>
      <circle cx="8.5" cy="10.5" r="1.5" fill="#FFFFFF"/>
    </g>
    <g id="battery" transform="translate(345, 29)">
      <rect x="0.5" y="0.5" width="23" height="12" rx="3.5" stroke="#FFFFFF" stroke-opacity="0.35" fill="none"/>
      <rect x="2" y="2" width="20" height="9" rx="2" fill="#FFFFFF"/>
      <path d="M25 4.5V8.5C25.8 8.2 26.5 7.2 26.5 6.5C26.5 5.8 25.8 4.8 25 4.5Z" fill="#FFFFFF" fill-opacity="0.4"/>
    </g>
  </g>

  <g id="dynamic-island">
    <rect x="138" y="11" width="126" height="37" rx="24" fill="#000000"/>
  </g>

  <g id="app-bar">
    <text x="16" y="85" font-size="20" font-weight="700" fill="#FFFFFF">MuscleLog</text>
    <g id="search-icon" transform="translate(362, 70)">
      <circle cx="8" cy="8" r="6.5" fill="none" stroke="#8E8E93" stroke-width="1.8"/>
      <line x1="13" y1="13" x2="17" y2="17" stroke="#8E8E93" stroke-width="1.8" stroke-linecap="round"/>
    </g>
  </g>

  <g id="summary-card">
    <rect x="16" y="100" width="370" height="332" rx="16" fill="#1C1C1E"/>
    <text x="32" y="130" font-size="14" fill="#8E8E93">오늘 총 볼륨</text>

    <g id="calendar-mini">
      <text x="201" y="160" text-anchor="middle" font-size="14" font-weight="700" fill="#FFFFFF">2026년 4월</text>
      <g id="calendar-dow" fill="#8E8E93" font-size="11" text-anchor="middle">
        <text x="56" y="180">월</text>
        <text x="103" y="180">화</text>
        <text x="150" y="180">수</text>
        <text x="197" y="180">목</text>
        <text x="244" y="180">금</text>
        <text x="291" y="180">토</text>
        <text x="338" y="180">일</text>
      </g>
      <g id="calendar-grid" font-size="13" fill="#FFFFFF" text-anchor="middle">
        <g font-weight="400">
          <text x="291" y="202">1</text><text x="338" y="202">2</text>
          <text x="56" y="226">3</text><text x="103" y="226">4</text><text x="150" y="226">5</text><text x="197" y="226">6</text><text x="244" y="226">7</text><text x="291" y="226">8</text><text x="338" y="226">9</text>
          <text x="56" y="250">10</text><text x="103" y="250">11</text><text x="150" y="250">12</text><text x="197" y="250">13</text><text x="244" y="250">14</text><text x="291" y="250">15</text><text x="338" y="250">16</text>
          <text x="56" y="274">17</text><text x="103" y="274">18</text>
        </g>
        <g id="marked-days">
          <circle cx="56" cy="294" r="2.5" fill="#2196F3"/>
          <circle cx="103" cy="294" r="2.5" fill="#2196F3"/>
          <circle cx="150" cy="294" r="2.5" fill="#2196F3"/>
        </g>
        <g font-weight="400">
          <text x="56" y="298">19</text><text x="103" y="298">20</text><text x="150" y="298">21</text>
        </g>
        <g id="today-pill">
          <circle cx="197" cy="293" r="14" fill="#FF9800"/>
          <text x="197" y="298" font-weight="700" fill="#FFFFFF">22</text>
        </g>
        <g font-weight="400">
          <text x="244" y="298">23</text><text x="291" y="298">24</text><text x="338" y="298">25</text>
          <text x="56" y="322">26</text><text x="103" y="322">27</text><text x="150" y="322">28</text><text x="197" y="322">29</text><text x="244" y="322">30</text>
        </g>
      </g>
    </g>

    <line x1="32" y1="344" x2="370" y2="344" stroke="#3A3A3C" stroke-width="1"/>

    <g id="volume-info">
      <text x="32" y="392" font-size="48" font-weight="700" fill="#FFFFFF">1,240kg</text>
      <text x="32" y="416" font-size="14" fill="#8E8E93">오늘의 집중</text>
      <text x="32" y="442" font-size="24" font-weight="700" fill="#FFFFFF">상체 집중</text>
    </g>
  </g>

  <g id="section-header">
    <text x="16" y="485" font-size="20" font-weight="700" fill="#FFFFFF">오늘의 운동</text>
    <text x="298" y="485" font-size="13" font-weight="600" fill="#2196F3">순서 변경</text>
    <text x="356" y="485" font-size="13" font-weight="600" fill="#2196F3">루틴 저장</text>
  </g>

  <g id="tag-new">
    <rect x="16" y="501" width="74" height="24" rx="12" fill="#2196F3" fill-opacity="0.145"/>
    <text x="53" y="518" text-anchor="middle" font-size="13" font-weight="700" fill="#2196F3">신규 운동</text>
  </g>

  <g id="workout-card-1">
    <rect x="16" y="541" width="370" height="218" rx="16" fill="#1C1C1E"/>
    <text x="32" y="574" font-size="18" font-weight="700" fill="#FFFFFF">벤치프레스</text>
    <text x="354" y="576" text-anchor="middle" font-size="20" fill="#8E8E93">🗑</text>

    <g id="set-1">
      <text x="58" y="607" text-anchor="middle" font-size="14" font-weight="700" fill="#FFFFFF">1세트</text>
      <rect x="92" y="592" width="64" height="30" rx="6" fill="#2C2C2E" stroke="#3A3A3C" stroke-width="1"/>
      <text x="124" y="612" text-anchor="middle" font-size="14" fill="#FFFFFF">80</text>
      <text x="170" y="612" font-size="12" fill="#8E8E93">kg</text>
      <rect x="196" y="592" width="56" height="30" rx="6" fill="#2C2C2E" stroke="#3A3A3C" stroke-width="1"/>
      <text x="224" y="612" text-anchor="middle" font-size="14" fill="#FFFFFF">10</text>
      <text x="262" y="612" font-size="12" fill="#8E8E93">회</text>
    </g>
    <g id="set-2">
      <text x="58" y="645" text-anchor="middle" font-size="14" font-weight="700" fill="#FFFFFF">2세트</text>
      <rect x="92" y="630" width="64" height="30" rx="6" fill="#2C2C2E" stroke="#3A3A3C" stroke-width="1"/>
      <text x="124" y="650" text-anchor="middle" font-size="14" fill="#FFFFFF">80</text>
      <text x="170" y="650" font-size="12" fill="#8E8E93">kg</text>
      <rect x="196" y="630" width="56" height="30" rx="6" fill="#2C2C2E" stroke="#3A3A3C" stroke-width="1"/>
      <text x="224" y="650" text-anchor="middle" font-size="14" fill="#FFFFFF">8</text>
      <text x="262" y="650" font-size="12" fill="#8E8E93">회</text>
    </g>

    <text x="32" y="688" font-size="14" font-weight="600" fill="#2196F3">＋ 세트 추가</text>

    <rect x="32" y="705" width="338" height="40" rx="10" fill="#2196F3"/>
    <text x="201" y="730" text-anchor="middle" font-size="15" font-weight="600" fill="#FFFFFF">저장</text>
  </g>

  <g id="workout-card-2">
    <rect x="16" y="767" width="370" height="180" rx="16" fill="#1C1C1E" fill-opacity="0.6"/>
  </g>

  <g id="fab">
    <rect x="242" y="702" width="144" height="48" rx="24" fill="#2196F3"/>
    <text x="261" y="732" font-size="20" fill="#FFFFFF">+</text>
    <text x="280" y="732" font-size="15" font-weight="600" fill="#FFFFFF">운동 추가하기</text>
  </g>

  <g id="bottom-nav">
    <rect x="0" y="792" width="402" height="82" fill="#1C1C1E"/>
    <line x1="0" y1="792" x2="402" y2="792" stroke="#3A3A3C" stroke-width="1"/>

    <g id="nav-home">
      <text x="50.25" y="822" text-anchor="middle" font-size="20" fill="#2196F3">⌂</text>
      <text x="50.25" y="840" text-anchor="middle" font-size="10" font-weight="600" fill="#2196F3">홈</text>
    </g>
    <g id="nav-log">
      <text x="150.75" y="822" text-anchor="middle" font-size="20" fill="#8E8E93">◉</text>
      <text x="150.75" y="840" text-anchor="middle" font-size="10" fill="#8E8E93">운동 기록</text>
    </g>
    <g id="nav-ai">
      <text x="251.25" y="822" text-anchor="middle" font-size="20" fill="#8E8E93">✦</text>
      <text x="251.25" y="840" text-anchor="middle" font-size="10" fill="#8E8E93">AI 루틴</text>
    </g>
    <g id="nav-my">
      <text x="351.75" y="822" text-anchor="middle" font-size="20" fill="#8E8E93">◎</text>
      <text x="351.75" y="840" text-anchor="middle" font-size="10" fill="#8E8E93">내 정보</text>
    </g>
  </g>

  <g id="home-indicator">
    <rect x="131.5" y="861" width="139" height="5" rx="2.5" fill="#FFFFFF" fill-opacity="0.7"/>
  </g>

</svg>
